# xmcd
#
# Track frame offsets:
#	150
#	61832
#	92425
#	139837
#	165877
#	208275
#	254392
#
# Disc length: 4021 seconds
#
# Revision: 1
# Processed by: cddbd v1.4PL0 Copyright (c) Steve Scherf et al.
# Submitted via: audiograbber 1.82.02
#
DISCID=580fb307
DTITLE=Daniel Castro - Live At The Saloon [CD2]
DYEAR=2003
DGENRE=Blues
TTITLE0=Got My Mojo Working
TTITLE1=Empty Arms
TTITLE2=Cross Cut Saw
TTITLE3=Talk About My Baby
TTITLE4=Intro To...
TTITLE5=All Along The Watch Tower
TTITLE6=Turn On Your Love Light
EXTD=
EXTT0=
EXTT1=
EXTT2=
EXTT3=
EXTT4=
EXTT5=
EXTT6=
PLAYORDER=
